{"glyphs":{"0":{"ha":716,"x_min":29,"x_max":686,"o":"m 686 378 l 686 345 q 686 311 672 274 q 658 236 635 204 q 612 149 560 92 q 508 -15 372 -15 q 236 -15 79 185 q 29 336 29 378 q 29 417 80 501 q 131 585 131 585 q 203 687 342 780 q 448 796 582 691 q 686 417 686 378 m 485 526 q 491 525 508 517 q 526 500 562 470 q 612 417 612 378 q 612 339 523 249 q 433 159 372 159 q 318 159 237 249 q 156 417 156 378 q 156 456 198 530 q 241 620 283 673 q 356 706 427 706 q 385 706 413 698 q 442 676 471 655 l 485 526 m 491 519 l 482 525 q 483 522 491 519 z"},"1":{"ha":716,"x_min":139,"x_max":608,"o":"m 608 0 l 608 74 l 394 74 l 394 706 l 319 706 q 292 619 278 591 q 224 547 170 510 l 224 490 l 319 490 l 319 74 l 139 74 l 139 0 l 608 0"},"2":{"ha":716,"x_min":30,"x_max":661,"o":"m 661 74 l 208 74 q 233 118 250 140 q 298 201 373 266 q 426 382 426 362 q 426 427 381 500 q 336 574 336 617 q 336 666 399 698 q 461 706 520 706 q 593 706 661 644 l 661 776 q 557 812 481 812 q 317 812 219 728 q 209 644 209 585 q 209 547 282 470 q 356 392 356 363 q 356 353 325 312 q 223 206 217 198 q 181 158 164 141 q 137 83 137 44 l 661 44 l 661 74"},"3":{"ha":716,"x_min":26,"x_max":670,"o":"m 670 212 q 670 366 522 420 q 641 511 641 514 q 641 600 566 654 q 490 706 373 706 q 259 706 132 589 l 132 497 q 214 602 298 654 q 364 706 420 706 q 439 706 491 681 q 544 583 544 527 q 544 505 514 454 q 425 382 346 382 l 309 382 l 309 308 l 366 308 q 453 308 517 242 q 581 177 581 93 q 581 59 560 33 q 526 10 497 -3 q 429 -36 347 -36 q 283 -36 134 88 l 132 72 l 132 -19 q 225 -68 279 -86 q 357 -104 451 -104 q 572 -104 666 11 q 670 212"},"4":{"ha":716,"x_min":21,"x_max":672,"o":"m 672 171 l 672 249 l 565 249 l 565 706 l 465 706 l 21 255 l 21 171 l 489 171 l 489 -29 l 565 -29 l 565 171 l 672 171 m 489 249 l 93 249 l 489 647 l 489 249"},"5":{"ha":716,"x_min":35,"x_max":676,"o":"m 676 212 q 676 343 604 406 q 533 470 533 470 q 639 546 639 669 l 632 710 q 516 812 369 812 q 209 812 134 679 l 209 679 l 209 706 l 134 706 l 134 272 l 226 272 q 464 272 549 209 q 581 124 581 63 q 581 30 565 6 q 530 -23 501 -43 q 418 -86 328 -86 q 212 -86 132 32 l 132 21 q 249 -104 426 -104 q 497 -104 596 -12 q 676 212 m 582 528 q 582 491 530 452 q 478 418 426 418 q 331 418 209 472 l 209 641 q 376 726 437 726 q 452 726 518 659 q 582 528 582 528"},"6":{"ha":716,"x_min":64,"x_max":639,"o":"m 639 220 q 639 331 583 421 q 528 511 478 540 q 422 606 422 635 q 422 667 469 689 q 517 706 563 706 q 559 706 577 698 q 607 681 619 675 l 639 755 q 561 812 476 812 q 423 812 325 746 q 174 514 174 333 q 174 117 295 0 q 453 -104 592 -104 q 533 -104 590 -86 l 561 -15 q 505 -36 457 -36 q 343 -36 254 71 q 191 212 191 285 q 244 170 292 146 q 403 122 487 122 q 639 220 639 220 m 546 226 q 546 158 492 115 q 438 96 371 96 q 299 96 225 179 q 174 347 174 435 q 237 310 287 291 q 396 268 472 268 q 546 226 546 226"},"7":{"ha":716,"x_min":45,"x_max":691,"o":"m 691 706 l 45 706 l 45 626 l 605 626 q 473 396 363 217 q 332 -23 332 -130 l 421 -23 q 561 295 691 558 l 691 706"},"8":{"ha":716,"x_min":67,"x_max":646,"o":"m 646 197 q 646 273 585 346 q 525 420 525 456 q 605 510 605 593 q 605 657 553 714 q 500 771 419 789 q 358 803 253 782 q 67 585 67 501 q 67 441 117 351 q 210 210 228 194 q 152 117 152 103 q 152 54 198 -18 q 292 -104 412 -104 q 564 74 564 132 q 564 153 505 232 q 446 312 446 327 q 559 374 602 437 q 646 514 646 561 m 524 200 q 524 158 473 115 q 422 72 357 72 q 328 72 269 123 q 210 267 210 347 q 216 318 273 359 q 439 425 439 373 q 524 200 524 200 m 531 581 q 531 536 492 489 q 403 415 329 404 q 210 512 210 564 q 210 596 272 659 q 361 722 426 722 q 431 722 479 681 q 531 581 531 581"},"9":{"ha":716,"x_min":44,"x_max":652,"o":"m 652 362 q 652 601 517 693 q 344 794 173 698 q 44 466 44 275 q 44 130 192 13 q 380 -104 539 -104 q 476 -104 545 -84 l 502 -12 q 453 -25 409 -25 q 246 -25 154 131 q 174 376 174 461 q 228 337 281 316 q 427 280 490 280 q 652 362 652 362 m 556 374 q 556 326 511 292 q 416 258 354 258 q 260 258 182 376 q 182 505 254 630 q 331 706 450 706 q 355 706 387 697 q 454 659 497 601 q 556 374 556 374"},"A":{"ha":716,"x_min":0,"x_max":716,"o":"m 716 0 l 412 776 l 305 776 l 0 0 l 98 0 l 198 255 l 516 255 l 616 0 l 716 0 m 475 329 l 238 329 l 355 630 l 475 329"},"B":{"ha":716,"x_min":63,"x_max":651,"o":"m 651 201 q 651 287 593 344 q 502 401 502 430 q 582 459 610 503 q 639 588 639 643 q 600 701 503 745 q 406 776 286 776 l 63 776 l 63 706 l 140 706 l 140 70 l 63 70 l 63 0 l 430 0 q 607 61 651 201 m 551 582 q 551 512 488 472 q 357 418 286 418 l 140 418 l 140 706 l 371 706 q 551 582 551 582 m 579 218 q 579 152 507 108 q 335 56 273 56 q 264 56 197 58 q 140 63 140 63 l 140 355 l 357 355 q 579 218 579 218"},"C":{"ha":716,"x_min":56,"x_max":665,"o":"m 665 75 q 579 45 611 45 q 496 45 433 85 q 321 320 321 496 q 321 633 422 726 q 529 776 581 776 q 615 776 665 745 l 665 847 q 515 881 451 881 q 282 881 159 720 q 56 348 56 323 q 56 189 101 68 q 225 -97 418 -97 q 492 -97 665 3 l 665 75"},"D":{"ha":716,"x_min":63,"x_max":703,"o":"m 703 382 q 703 548 562 691 q 384 776 225 776 l 63 776 l 63 706 l 140 706 l 140 70 l 63 70 l 63 0 l 323 0 q 703 201 703 382 m 631 384 q 631 250 516 138 q 315 70 218 70 q 240 70 182 72 q 140 79 140 79 l 140 706 l 225 706 q 455 706 543 609 q 631 384 631 384"},"E":{"ha":716,"x_min":63,"x_max":643,"o":"m 643 706 l 643 776 l 63 776 l 63 706 l 140 706 l 140 70 l 63 70 l 63 0 l 639 0 l 639 213 l 565 213 l 565 70 l 140 70 l 140 355 l 487 355 l 487 425 l 140 425 l 140 706 l 643 706"},"F":{"ha":716,"x_min":63,"x_max":640,"o":"m 640 706 l 640 776 l 63 776 l 63 706 l 140 706 l 140 70 l 63 70 l 63 0 l 640 0 l 640 213 l 565 213 l 565 70 l 140 70 l 140 355 l 487 355 l 487 425 l 140 425 l 140 706 l 640 706"},"G":{"ha":716,"x_min":53,"x_max":669,"o":"m 669 54 l 669 423 l 345 423 l 345 348 l 596 348 l 596 122 q 515 89 469 89 q 421 89 330 181 q 229 409 229 499 q 229 617 322 705 q 417 776 507 776 q 567 776 669 698 l 669 871 q 498 889 431 889 q 244 889 126 717 q 53 347 53 306 q 53 185 104 73 q 287 -97 497 -97 q 425 -97 516 -68 q 669 54 669 54"},"H":{"ha":716,"x_min":63,"x_max":653,"o":"m 653 706 l 653 776 l 415 776 l 415 706 l 494 706 l 494 425 l 221 425 l 221 706 l 300 706 l 300 776 l 63 776 l 63 706 l 140 706 l 140 70 l 63 70 l 63 0 l 300 0 l 300 70 l 221 70 l 221 355 l 494 355 l 494 70 l 415 70 l 415 0 l 653 0 l 653 70 l 573 70 l 573 706 l 653 706"},"I":{"ha":716,"x_min":247,"x_max":469,"o":"m 469 0 l 469 70 l 392 70 l 392 706 l 469 706 l 469 776 l 247 776 l 247 706 l 327 706 l 327 70 l 247 70 l 247 0 l 469 0"},"J":{"ha":716,"x_min":76,"x_max":628,"o":"m 628 212 l 628 776 l 200 776 l 200 706 l 281 706 l 281 212 q 255 122 212 88 q 190 53 141 53 q 114 53 76 91 l 76 11 q 169 -36 238 -36 q 415 14 440 127 q 444 212 444 212 l 444 706 l 524 706 l 524 212 q 444 0 250 0 q 628 212 628 212"}}}
